<svg xmlns="http://www.w3.org/2000/svg" viewBox="0 0 512 512" style="height: 512px; width: 512px;"><defs><filter id="shadow-1" height="300%" width="300%" x="-100%" y="-100%"><feFlood flood-color="rgba(255, 255, 255, 1)" result="flood"></feFlood><feComposite in="flood" in2="SourceGraphic" operator="atop" result="composite"></feComposite><feGaussianBlur in="composite" stdDeviation="5" result="blur"></feGaussianBlur><feOffset dx="0" dy="0" result="offset"></feOffset><feComposite in="SourceGraphic" in2="offset" operator="over"></feComposite></filter></defs><path d="M45 45h422v422H45z" fill="#1658a5" fill-opacity="1" stroke="#ffffff" stroke-opacity="0" stroke-width="45"></path><g class="" transform="translate(0,0)" style=""><path d="M383 81.68A47.37 47.37 0 1 1 335.58 129 47.37 47.37 0 0 1 383 81.68zM81.67 383A47.37 47.37 0 1 0 129 335.59 47.37 47.37 0 0 0 81.67 383zM428 47.57H84A36.48 36.48 0 0 0 47.57 84v344A36.48 36.48 0 0 0 84 464.43h344A36.48 36.48 0 0 0 464.43 428V84A36.48 36.48 0 0 0 428 47.57m0-20A56.54 56.54 0 0 1 484.43 84v344A56.54 56.54 0 0 1 428 484.43H84A56.54 56.54 0 0 1 27.57 428V84A56.54 56.54 0 0 1 84 27.57z" fill="#0b0a1d" fill-opacity="1" transform="translate(512, 512) scale(-1, -1) rotate(180, 256, 256) skewX(0) skewY(0)" filter="url(#shadow-1)"></path></g></svg>