<svg xmlns="http://www.w3.org/2000/svg" viewBox="0 0 512 512" style="height: 512px; width: 512px;"><defs><filter id="shadow-1" height="300%" width="300%" x="-100%" y="-100%"><feFlood flood-color="rgba(255, 255, 255, 1)" result="flood"></feFlood><feComposite in="flood" in2="SourceGraphic" operator="atop" result="composite"></feComposite><feGaussianBlur in="composite" stdDeviation="5" result="blur"></feGaussianBlur><feOffset dx="0" dy="0" result="offset"></feOffset><feComposite in="SourceGraphic" in2="offset" operator="over"></feComposite></filter></defs><path d="M45 45h422v422H45z" fill="#1658a5" fill-opacity="1" stroke="#ffffff" stroke-opacity="0" stroke-width="45"></path><g class="" transform="translate(0,0)" style=""><path d="M302.87 255.5a47.37 47.37 0 1 1-47.37-47.37 47.37 47.37 0 0 1 47.37 47.37zM128.5 81.18a47.37 47.37 0 1 0 47.41 47.32 47.37 47.37 0 0 0-47.41-47.32zm253.91 0a47.37 47.37 0 1 0 47.41 47.32 47.37 47.37 0 0 0-47.32-47.32zM128.5 335.09a47.37 47.37 0 1 0 47.41 47.41 47.37 47.37 0 0 0-47.41-47.41zm253.91 0a47.37 47.37 0 1 0 47.41 47.41 47.37 47.37 0 0 0-47.32-47.41zm102 92.93a56.48 56.48 0 0 1-56.39 56.48h-344a56.48 56.48 0 0 1-56.52-56.48v-344A56.48 56.48 0 0 1 83.98 27.5h344a56.48 56.48 0 0 1 56.52 56.48zm-20-344a36.48 36.48 0 0 0-36.39-36.52h-344A36.48 36.48 0 0 0 47.5 83.98v344a36.48 36.48 0 0 0 36.48 36.52h344a36.48 36.48 0 0 0 36.52-36.48z" fill="#0b0a1d" fill-opacity="1" transform="translate(512, 512) scale(-1, -1) rotate(180, 256, 256) skewX(0) skewY(0)" filter="url(#shadow-1)"></path></g></svg>